<?xml version="1.0" standalone="no"?>
<!DOCTYPE svg PUBLIC "-//W3C//DTD SVG 20010904//EN"
 "http://www.w3.org/TR/2001/REC-SVG-20010904/DTD/svg10.dtd">
<svg version="1.0" xmlns="http://www.w3.org/2000/svg"
 width="176.000000pt" height="179.000000pt" viewBox="0 0 176.000000 179.000000"
 preserveAspectRatio="xMidYMid meet">

<g transform="translate(0.000000,179.000000) scale(0.100000,-0.100000)"
fill="#000000" stroke="none">
<path d="M703 1549 c-224 -37 -436 -214 -518 -433 -115 -304 8 -654 289 -824
111 -68 280 -107 403 -95 43 5 53 9 53 24 0 15 -8 19 -40 19 -40 0 -40 0 -40
39 0 48 -8 71 -25 71 -17 0 -25 -23 -25 -71 0 -39 0 -39 -38 -39 -83 0 -252
64 -321 121 l-24 20 22 22 c23 25 28 57 9 57 -7 0 -24 -12 -39 -26 l-26 -25
-47 53 c-61 68 -120 192 -140 290 -23 110 -24 106 36 110 39 2 53 7 53 18 0
11 -14 16 -53 18 l-53 3 6 47 c15 113 72 250 133 322 l30 35 24 -22 c46 -44
76 -18 32 28 -15 16 -26 30 -23 32 2 2 24 19 49 39 84 67 205 117 323 134 l47
6 0 -55 c0 -33 5 -59 13 -66 22 -18 37 8 37 67 l0 53 48 -6 c122 -17 234 -65
326 -140 61 -50 76 -55 76 -26 0 27 -91 97 -185 142 -128 61 -272 81 -412 58z"/>
<path d="M1216 1032 c-121 -163 -220 -306 -220 -317 -1 -18 6 -20 72 -23 48
-2 72 -7 72 -15 0 -7 -22 -111 -50 -232 -43 -193 -48 -222 -35 -235 13 -12 17
-12 29 0 18 19 426 607 432 624 10 26 -24 39 -86 32 -33 -4 -60 -3 -60 1 1 4
24 105 53 224 29 118 51 221 49 227 -12 36 -51 -7 -256 -286z m153 3 c-51
-207 -50 -210 35 -210 31 0 56 -1 56 -3 0 -6 -353 -512 -356 -509 -1 2 61 283
81 364 8 35 -19 53 -82 53 -30 0 -53 4 -51 8 7 18 352 481 356 477 2 -2 -16
-83 -39 -180z"/>
<path d="M504 1179 c-4 -7 47 -65 120 -138 116 -117 126 -129 126 -164 0 -48
28 -77 74 -77 43 0 74 26 82 67 5 27 1 37 -25 64 -28 27 -37 31 -69 26 -36 -6
-40 -3 -161 114 -68 65 -127 119 -132 119 -4 0 -11 -5 -15 -11z m350 -275 c31
-30 8 -69 -36 -62 -26 3 -37 41 -18 64 16 18 35 18 54 -2z"/>
</g>
</svg>
